<?xml version="1.0" encoding="UTF-8" standalone="no"?>
<svg width="128px" height="128px" viewBox="0 0 128 128" version="1.1" xmlns="http://www.w3.org/2000/svg" xmlns:xlink="http://www.w3.org/1999/xlink" xmlns:sketch="http://www.bohemiancoding.com/sketch/ns">
    <!-- Generator: Sketch 3.4 (15588) - http://www.bohemiancoding.com/sketch -->
    <title>Fill 1</title>
    <desc>Created with Sketch.</desc>
    <defs></defs>
    <g id="Page-1" stroke="none" stroke-width="1" fill="none" fill-rule="evenodd" sketch:type="MSPage">
        <path d="M93.864,76.8026667 C85.3333333,85.3333333 85.3333333,93.864 76.8026667,93.864 C68.272,93.864 59.728,85.3333333 51.1973333,76.8026667 C42.6666667,68.272 34.136,59.728 34.136,51.1973333 C34.136,42.6666667 42.6666667,42.6666667 51.1973333,34.136 C59.728,25.6053333 34.136,0 25.6053333,0 C17.0613333,0 0,25.6053333 0,25.6053333 C0,42.6666667 17.5306667,77.272 34.136,93.864 C50.728,110.469333 85.3333333,128 102.394667,128 C102.394667,128 128,110.938667 128,102.394667 C128,93.864 102.394667,68.272 93.864,76.8026667 L93.864,76.8026667 Z" id="Fill-1" fill="#231F20" sketch:type="MSShapeGroup"></path>
    </g>
</svg>