<?xml version="1.0" encoding="UTF-8" standalone="no"?>
<svg width="70px" height="28px" viewBox="0 0 70 28" version="1.1" xmlns="http://www.w3.org/2000/svg" xmlns:xlink="http://www.w3.org/1999/xlink" xmlns:sketch="http://www.bohemiancoding.com/sketch/ns">
    <!-- Generator: Sketch 3.3.3 (12081) - http://www.bohemiancoding.com/sketch -->
    <title>Artboard</title>
    <desc>Created with Sketch.</desc>
    <defs></defs>
    <g id="Page-1" stroke="none" stroke-width="1" fill="none" fill-rule="evenodd" sketch:type="MSPage">
        <g id="Artboard" sketch:type="MSArtboardGroup">
            <g id="NHS" sketch:type="MSLayerGroup" transform="translate(1.000000, 2.000000)" fill="#FFFFFF">
                <path d="M65.1749153,5.92779661 C63.9932203,5.37016949 62.3867797,4.87898305 60.1230508,4.87898305 C57.6955932,4.87898305 55.7272881,5.23847458 55.7272881,7.07508475 C55.7272881,10.3247458 64.6184746,9.10983051 64.6184746,16.0635593 C64.6184746,22.3944068 58.7455932,24.0352542 53.4315254,24.0352542 C51.0705085,24.0352542 48.3464407,23.4776271 46.3449153,22.8547458 L47.7888136,18.1955932 C49.0025424,18.9833898 51.43,19.5089831 53.4315254,19.5089831 C55.3333898,19.5089831 58.3184746,19.1483051 58.3184746,16.7861017 C58.3184746,13.1116949 49.429661,14.4891525 49.429661,8.02779661 C49.429661,2.12288136 54.6120339,0.350338983 59.630678,0.350338983 C62.4520339,0.350338983 65.109661,0.646949153 66.6520339,1.36830508 L65.1749153,5.92779661" id="S" sketch:type="MSShapeGroup"></path>
                <path d="M29.5188136,0.744237288 L35.6527119,0.744237288 L33.8481356,9.50372881 L41.0984746,9.50372881 L42.9030508,0.744237288 L49.0369492,0.744237288 L44.2805085,23.6413559 L38.1454237,23.6413559 L40.1801695,13.8330508 L32.9310169,13.8330508 L30.8962712,23.6413559 L24.7623729,23.6413559 L29.5188136,0.744237288" id="H" sketch:type="MSShapeGroup"></path>
                <path d="M5.87186441,0.744237288 L13.5137288,0.744237288 L18.2061017,16.6223729 L18.2701695,16.6223729 L21.4854237,0.744237288 L27.2586441,0.744237288 L22.4037288,23.6413559 L14.7938983,23.6413559 L10.0042373,7.79881356 L9.93898305,7.79881356 L6.75694915,23.6413559 L0.983728814,23.6413559 L5.87186441,0.744237288" id="N" sketch:type="MSShapeGroup"></path>
            </g>
        </g>
    </g>
</svg>
