<?xml version="1.0" encoding="UTF-8" standalone="no"?>
<svg width="486px" height="198px" viewBox="0 0 486 198" version="1.1" xmlns="http://www.w3.org/2000/svg" xmlns:xlink="http://www.w3.org/1999/xlink" xmlns:sketch="http://www.bohemiancoding.com/sketch/ns">
    <!-- Generator: Sketch 3.3.3 (12081) - http://www.bohemiancoding.com/sketch -->
    <title>Slice 1</title>
    <desc>Created with Sketch.</desc>
    <defs></defs>
    <g id="Page-1" stroke="none" stroke-width="1" fill="none" fill-rule="evenodd" sketch:type="MSPage">
        <path d="M0,1 L485.557377,1 L485.557377,197.674165 L0,197.674165 L0,1 Z M13.704918,178.282368 L53.5901639,178.282368 L75.5737705,68.7482452 L76.0245902,68.7482452 L109.114754,178.282368 L161.688525,178.282368 L195.229508,19.9734461 L155.344262,19.9734461 L133.131148,129.753658 L132.688525,129.753658 L100.270492,19.9734461 L47.4754098,19.9734461 L13.704918,178.282368 L13.704918,178.282368 Z M177.983607,178.282368 L220.360656,178.282368 L234.418033,110.468499 L284.5,110.468499 L270.442623,178.282368 L312.827869,178.282368 L345.688525,19.9734461 L303.311475,19.9734461 L290.844262,80.5358985 L240.754098,80.5358985 L253.221311,19.9734461 L210.844262,19.9734461 L177.983607,178.282368 L177.983607,178.282368 Z M467.385246,24.288203 C456.729508,19.3008034 438.368852,17.2500634 418.877049,17.2500634 C384.204918,17.2500634 348.401639,29.5052854 348.401639,70.3314165 C348.401639,115.004736 409.811475,105.481099 409.811475,130.885666 C409.811475,147.217759 389.188525,149.711459 376.04918,149.711459 C362.221311,149.711459 345.45082,146.077548 337.065574,140.630782 L327.090164,172.843805 C340.918033,177.150359 359.737705,181.005751 376.04918,181.005751 C412.762295,181.005751 453.336066,169.661057 453.336066,125.890063 C453.336066,77.8125159 391.909836,86.2123467 391.909836,63.7444397 C391.909836,51.0462579 405.508197,48.5607611 422.278689,48.5607611 C437.918033,48.5607611 449.016393,51.9567865 457.180328,55.8121776 L467.385246,24.288203 L467.385246,24.288203 Z" id="NHS-rev" fill="#FFFFFF" sketch:type="MSShapeGroup"></path>
    </g>
</svg>